<?xml version="1.0" encoding="utf-8"?>
<!-- Tiny SVG sprite for forecasty.app icons: cog, heart, info -->
<svg xmlns="http://www.w3.org/2000/svg" style="display:none">
  <symbol id="icon-cog" viewBox="0 0 24 24">
    <path fill="currentColor" d="M19.14 12.936a7.07 7.07 0 000-1.872l2.036-1.58a.5.5 0 00.12-.63l-1.928-3.34a.5.5 0 00-.6-.22l-2.396.96a7.1 7.1 0 00-1.62-.94l-.36-2.54A.5.5 0 0013.2 2h-3.4a.5.5 0 00-.5.42l-.36 2.54c-.56.22-1.08.5-1.58.84l-2.4-.96a.5.5 0 00-.6.22L2.7 8.86a.5.5 0 00.12.63l2.04 1.58a7.07 7.07 0 000 1.87L2.82 15.55a.5.5 0 00-.12.63l1.928 3.34c.14.24.44.35.7.26l2.4-.96c.5.34 1.02.62 1.58.84l.36 2.54a.5.5 0 00.5.42h3.4a.5.5 0 00.5-.42l.36-2.54c.56-.22 1.08-.5 1.62-.94l2.4.96c.26.1.56-.02.7-.26l1.93-3.34a.5.5 0 00-.12-.63l-2.04-1.58zM12 16a4 4 0 110-8 4 4 0 010 8z"/>
  </symbol>
  <symbol id="icon-heart" viewBox="0 0 24 24">
    <path fill="currentColor" d="M12.1 21.35l-1.1-1.02C5.14 15.36 2 12.28 2 8.5 2 6.01 4.01 4 6.5 4c1.74 0 3.41.81 4.5 2.09C12.09 4.81 13.76 4 15.5 4 17.99 4 20 6.01 20 8.5c0 3.78-3.14 6.86-8.9 11.83l-1 1.02z"/>
  </symbol>
  <symbol id="icon-info" viewBox="0 0 24 24">
    <path fill="currentColor" d="M11 9h2V7h-2v2zm1-7C6.48 2 2 6.48 2 12s4.48 10 10 10 10-4.48 10-10S17.52 2 12 2zm1 17h-2v-6h2v6z"/>
  </symbol>
</svg>
